<?xml version="1.0" encoding="UTF-8" standalone="no"?>
<!DOCTYPE svg PUBLIC "-//W3C//DTD SVG 1.1//EN" "http://www.w3.org/Graphics/SVG/1.1/DTD/svg11.dtd">
<svg width="100%" height="100%" viewBox="0 0 1889 166" version="1.1" xmlns="http://www.w3.org/2000/svg" xmlns:xlink="http://www.w3.org/1999/xlink" xml:space="preserve" xmlns:serif="http://www.serif.com/" style="fill-rule:evenodd;clip-rule:evenodd;stroke-linecap:round;stroke-linejoin:round;stroke-miterlimit:1.5;">
    <g transform="matrix(1,0,0,1,-263.552,-930.519)">
        <path d="M420.448,1013.26L487.423,1013.26" style="fill:none;stroke:rgb(97,31,172);stroke-width:17.13px;"/>
    </g>
    <g transform="matrix(3.125,0,0,3.125,224.94,-3.9359)">
        <circle cx="92.304" cy="27.738" r="23.738" style="fill:none;stroke:rgb(97,31,172);stroke-width:5.48px;stroke-linecap:butt;stroke-miterlimit:2;"/>
    </g>
    <g transform="matrix(1,0,0,1,-48.2152,-930.519)">
        <path d="M420.448,1013.26L487.423,1013.26" style="fill:none;stroke:rgb(97,31,172);stroke-width:17.13px;"/>
    </g>
    <g transform="matrix(3.125,0,0,3.125,440.277,-3.9359)">
        <circle cx="92.304" cy="27.738" r="23.738" style="fill:none;stroke:rgb(97,31,172);stroke-width:5.48px;stroke-linecap:butt;stroke-miterlimit:2;"/>
    </g>
    <g transform="matrix(1,0,0,1,167.122,-930.519)">
        <path d="M420.448,1013.26L487.423,1013.26" style="fill:none;stroke:rgb(97,31,172);stroke-width:17.13px;"/>
    </g>
    <g transform="matrix(3.125,0,0,3.125,655.614,-3.9359)">
        <circle cx="92.304" cy="27.738" r="23.738" style="fill:none;stroke:rgb(97,31,172);stroke-width:5.48px;stroke-linecap:butt;stroke-miterlimit:2;"/>
    </g>
    <g transform="matrix(1,0,0,1,382.46,-930.519)">
        <path d="M420.448,1013.26L487.423,1013.26" style="fill:none;stroke:rgb(97,31,172);stroke-width:17.13px;"/>
    </g>
    <g transform="matrix(3.125,0,0,3.125,870.952,-3.9359)">
        <circle cx="92.304" cy="27.738" r="23.738" style="fill:none;stroke:rgb(97,31,172);stroke-width:5.48px;stroke-linecap:butt;stroke-miterlimit:2;"/>
    </g>
    <g transform="matrix(1,0,0,1,597.797,-930.519)">
        <path d="M420.448,1013.26L487.423,1013.26" style="fill:none;stroke:rgb(97,31,172);stroke-width:17.13px;"/>
    </g>
    <g transform="matrix(3.125,0,0,3.125,1086.29,-3.9359)">
        <circle cx="92.304" cy="27.738" r="23.738" style="fill:none;stroke:rgb(97,31,172);stroke-width:5.48px;stroke-linecap:butt;stroke-miterlimit:2;"/>
    </g>
    <g transform="matrix(1,0,0,1,813.134,-930.519)">
        <path d="M420.448,1013.26L487.423,1013.26" style="fill:none;stroke:rgb(97,31,172);stroke-width:17.13px;"/>
    </g>
    <g transform="matrix(3.125,0,0,3.125,1301.62,-3.9359)">
        <circle cx="92.304" cy="27.738" r="23.738" style="fill:none;stroke:rgb(97,31,172);stroke-width:5.48px;stroke-linecap:butt;stroke-miterlimit:2;"/>
    </g>
    <g transform="matrix(1,0,0,1,1028.47,-930.519)">
        <path d="M420.448,1013.26L487.423,1013.26" style="fill:none;stroke:rgb(97,31,172);stroke-width:17.13px;"/>
    </g>
    <g transform="matrix(3.125,0,0,3.125,1516.96,-3.9359)">
        <circle cx="92.304" cy="27.738" r="23.738" style="fill:none;stroke:rgb(97,31,172);stroke-width:5.48px;stroke-linecap:butt;stroke-miterlimit:2;"/>
    </g>
    <g transform="matrix(1,0,0,1,1243.81,-930.519)">
        <path d="M420.448,1013.26L487.423,1013.26" style="fill:none;stroke:rgb(97,31,172);stroke-width:17.13px;"/>
    </g>
    <g transform="matrix(3.125,0,0,3.125,-205.735,-3.9359)">
        <circle cx="92.304" cy="27.738" r="23.738" style="fill:rgb(252,114,7);stroke:rgb(252,114,7);stroke-width:5.46px;stroke-linecap:butt;stroke-miterlimit:2;"/>
    </g>
    <g transform="matrix(3.125,0,0,3.125,9.602,-3.9359)">
        <circle cx="92.304" cy="27.738" r="23.738" style="fill:none;stroke:rgb(97,31,172);stroke-width:5.48px;stroke-linecap:butt;stroke-miterlimit:2;"/>
    </g>
</svg>
